<svg width="64" height="64" viewBox="0 0 64 64" fill="none" xmlns="http://www.w3.org/2000/svg">
<g filter="url(#filter0_d_231_153)">
<rect x="10" y="8" width="44" height="44" rx="12" fill="white" shape-rendering="crispEdges"/>
<path fill-rule="evenodd" clip-rule="evenodd" d="M28.8927 24.2902C28.9593 23.8248 29.1016 23.5681 29.3031 23.3954C29.6384 23.108 30.3628 22.85 31.9999 22.85C33.637 22.85 34.3614 23.108 34.6967 23.3954C34.8985 23.5683 35.0409 23.8256 35.1074 24.2924C34.2012 24.1894 33.1685 24.15 31.9999 24.15C30.8299 24.15 29.7977 24.1896 28.8927 24.2902ZM27.1588 24.6032C27.2027 23.6776 27.4266 22.7647 28.1967 22.1046C29.0281 21.392 30.3036 21.15 31.9999 21.15C33.6962 21.15 34.9717 21.392 35.8031 22.1046C36.5762 22.7673 36.7988 23.6847 36.8415 24.6139C37.7271 24.8609 38.4775 25.2342 39.0803 25.7977C40.2613 26.9016 40.6877 28.5594 40.8091 30.7389C40.8356 30.8212 40.8499 30.9089 40.8499 31C40.8499 31.1577 40.8468 31.3169 40.8386 31.4766C40.8465 31.7793 40.8499 32.0911 40.8499 32.4118C40.8499 34.8466 40.532 36.8446 39.0662 38.1541C37.6392 39.429 35.3373 39.85 31.9999 39.85C30.3151 39.85 28.9159 39.768 27.7711 39.5396C26.6221 39.3105 25.6701 38.9227 24.9346 38.2676C23.4552 36.9499 23.1499 34.8222 23.1499 32C23.1499 31.7798 23.1518 31.5639 23.1559 31.3522C23.1516 31.2342 23.1499 31.1167 23.1499 31C23.1499 30.9331 23.1576 30.868 23.1723 30.8055C23.2644 28.5721 23.6717 26.8571 24.9346 25.7324C25.5352 25.1975 26.2801 24.8408 27.1588 24.6032ZM24.8569 31.341C24.9108 28.9192 25.2796 27.7016 26.0652 27.0019C26.4963 26.618 27.1277 26.3222 28.1037 26.1275C29.0839 25.932 30.3514 25.85 31.9999 25.85C33.6492 25.85 34.9141 25.9322 35.8913 26.133C36.8622 26.3325 37.4891 26.6373 37.9195 27.0396C38.6916 27.7614 39.0645 29.0152 39.1367 31.459C39.1136 31.8253 39.0585 32.1213 38.9612 32.3695C38.8369 32.6867 38.6281 32.9658 38.2261 33.2152C37.3433 33.763 35.5691 34.15 32.0059 34.15C28.4431 34.15 26.6651 33.7631 25.7789 33.2147C25.3749 32.9647 25.1649 32.6851 25.0399 32.3679C24.9319 32.094 24.8754 31.7617 24.8569 31.341ZM38.9825 34.743C38.8013 35.7423 38.4646 36.4119 37.9336 36.8863C37.0273 37.696 35.3292 38.15 31.9999 38.15C30.3514 38.15 29.0839 38.068 28.1037 37.8725C27.1277 37.6778 26.4963 37.382 26.0652 36.9981C25.5476 36.537 25.211 35.8512 25.0261 34.7444C26.3756 35.5116 28.5683 35.85 32.0059 35.85C35.4446 35.85 37.6356 35.5114 38.9825 34.743ZM29.1499 32C29.1499 31.5306 29.5305 31.15 29.9999 31.15H33.9999C34.4693 31.15 34.8499 31.5306 34.8499 32C34.8499 32.4694 34.4693 32.85 33.9999 32.85L29.9999 32.85C29.5305 32.85 29.1499 32.4694 29.1499 32Z" fill="#347AE2"/>
</g>
<defs>
<filter id="filter0_d_231_153" x="0" y="0" width="64" height="64" filterUnits="userSpaceOnUse" color-interpolation-filters="sRGB">
<feFlood flood-opacity="0" result="BackgroundImageFix"/>
<feColorMatrix in="SourceAlpha" type="matrix" values="0 0 0 0 0 0 0 0 0 0 0 0 0 0 0 0 0 0 127 0" result="hardAlpha"/>
<feOffset dy="2"/>
<feGaussianBlur stdDeviation="5"/>
<feComposite in2="hardAlpha" operator="out"/>
<feColorMatrix type="matrix" values="0 0 0 0 0.486275 0 0 0 0 0.552941 0 0 0 0 0.709804 0 0 0 0.12 0"/>
<feBlend mode="normal" in2="BackgroundImageFix" result="effect1_dropShadow_231_153"/>
<feBlend mode="normal" in="SourceGraphic" in2="effect1_dropShadow_231_153" result="shape"/>
</filter>
</defs>
</svg>
