<svg width="68" height="30" viewBox="0 0 68 30" fill="none" xmlns="http://www.w3.org/2000/svg">
<path d="M13 9.5C13 11.8333 12.6111 13 9.5 13C6.38889 13 6 11.8333 6 9.5C6 7.16667 6.4375 6 9.5 6C12.5625 6 13 7.16667 13 9.5Z" fill="#347AE2" stroke="#347AE2" stroke-width="1.5" stroke-linecap="round" stroke-linejoin="round"/>
<path d="M13 20.5C13 22.8333 12.6111 24 9.5 24C6.38889 24 6 22.8333 6 20.5C6 18.1667 6.4375 17 9.5 17C12.5625 17 13 18.1667 13 20.5Z" fill="#347AE2" stroke="#347AE2" stroke-width="1.5" stroke-linecap="round" stroke-linejoin="round"/>
<path d="M24 20.5C24 22.8333 23.6111 24 20.5 24C17.3889 24 17 22.8333 17 20.5C17 18.1667 17.4375 17 20.5 17C23.5625 17 24 18.1667 24 20.5Z" fill="#347AE2" stroke="#347AE2" stroke-width="1.5" stroke-linecap="round" stroke-linejoin="round"/>
<path d="M45.56 12.1C45.2 11.4067 44.7 10.8867 44.06 10.54C43.42 10.18 42.68 10 41.84 10C40.92 10 40.1 10.2067 39.38 10.62C38.66 11.0333 38.0933 11.62 37.68 12.38C37.28 13.14 37.08 14.02 37.08 15.02C37.08 16.02 37.28 16.9067 37.68 17.68C38.0933 18.44 38.66 19.0267 39.38 19.44C40.1 19.8533 40.92 20.06 41.84 20.06C43.08 20.06 44.0867 19.7133 44.86 19.02C45.6333 18.3267 46.1067 17.3867 46.28 16.2H41.06V14.38H48.72V16.16C48.5733 17.24 48.1867 18.2333 47.56 19.14C46.9467 20.0467 46.14 20.7733 45.14 21.32C44.1533 21.8533 43.0533 22.12 41.84 22.12C40.5333 22.12 39.34 21.82 38.26 21.22C37.18 20.6067 36.32 19.76 35.68 18.68C35.0533 17.6 34.74 16.38 34.74 15.02C34.74 13.66 35.0533 12.44 35.68 11.36C36.32 10.28 37.18 9.44 38.26 8.84C39.3533 8.22667 40.5467 7.92 41.84 7.92C43.32 7.92 44.6333 8.28667 45.78 9.02C46.94 9.74 47.78 10.7667 48.3 12.1H45.56ZM55.1687 22.18C54.3021 22.18 53.5221 22.0267 52.8287 21.72C52.1487 21.4 51.6087 20.9733 51.2087 20.44C50.8087 19.8933 50.5954 19.2867 50.5687 18.62H52.9287C52.9687 19.0867 53.1887 19.48 53.5888 19.8C54.0021 20.1067 54.5154 20.26 55.1287 20.26C55.7687 20.26 56.2621 20.14 56.6087 19.9C56.9688 19.6467 57.1488 19.3267 57.1488 18.94C57.1488 18.5267 56.9488 18.22 56.5488 18.02C56.1621 17.82 55.5421 17.6 54.6888 17.36C53.8621 17.1333 53.1887 16.9133 52.6687 16.7C52.1487 16.4867 51.6954 16.16 51.3087 15.72C50.9354 15.28 50.7487 14.7 50.7487 13.98C50.7487 13.3933 50.9221 12.86 51.2687 12.38C51.6154 11.8867 52.1087 11.5 52.7488 11.22C53.4021 10.94 54.1487 10.8 54.9887 10.8C56.2421 10.8 57.2488 11.12 58.0088 11.76C58.7821 12.3867 59.1954 13.2467 59.2488 14.34H56.9688C56.9288 13.8467 56.7288 13.4533 56.3687 13.16C56.0088 12.8667 55.5221 12.72 54.9088 12.72C54.3088 12.72 53.8487 12.8333 53.5287 13.06C53.2088 13.2867 53.0488 13.5867 53.0488 13.96C53.0488 14.2533 53.1554 14.5 53.3687 14.7C53.5821 14.9 53.8421 15.06 54.1487 15.18C54.4554 15.2867 54.9088 15.4267 55.5088 15.6C56.3088 15.8133 56.9621 16.0333 57.4688 16.26C57.9888 16.4733 58.4354 16.7933 58.8088 17.22C59.1821 17.6467 59.3754 18.2133 59.3888 18.92C59.3888 19.5467 59.2154 20.1067 58.8687 20.6C58.5221 21.0933 58.0288 21.48 57.3887 21.76C56.7621 22.04 56.0221 22.18 55.1687 22.18ZM64.7123 12.84V18.94C64.7123 19.3533 64.8057 19.6533 64.9923 19.84C65.1923 20.0133 65.5257 20.1 65.9923 20.1H67.3923V22H65.5923C64.5657 22 63.779 21.76 63.2323 21.28C62.6857 20.8 62.4123 20.02 62.4123 18.94V12.84H61.1123V10.98H62.4123V8.24H64.7123V10.98H67.3923V12.84H64.7123Z" fill="black"/>
</svg>
