<svg width="24" height="24" viewBox="0 0 24 24" fill="none" xmlns="http://www.w3.org/2000/svg">
<path fill-rule="evenodd" clip-rule="evenodd" d="M6.8499 7.99999C6.8499 6.2603 8.26021 4.84999 9.9999 4.84999C11.7396 4.84999 13.1499 6.2603 13.1499 7.99999C13.1499 9.73969 11.7396 11.15 9.9999 11.15C8.26021 11.15 6.8499 9.73969 6.8499 7.99999ZM9.9999 3.14999C7.32132 3.14999 5.1499 5.32141 5.1499 7.99999C5.1499 10.6786 7.32132 12.85 9.9999 12.85C12.6785 12.85 14.8499 10.6786 14.8499 7.99999C14.8499 5.32141 12.6785 3.14999 9.9999 3.14999ZM4.8499 17.9167C4.8499 17.5136 5.17855 16.9979 6.21827 16.5388C7.2078 16.1018 8.58414 15.85 9.9999 15.85C11.3956 15.85 12.7708 16.1431 13.7678 16.6047C14.2668 16.8357 14.6327 17.0912 14.8629 17.3378C15.0845 17.5752 15.1475 17.7656 15.1498 17.9085C15.1418 17.93 15.105 17.9981 14.9626 18.1088C14.7442 18.2786 14.3796 18.4616 13.8649 18.627C12.8445 18.9549 11.4362 19.15 9.9999 19.15C8.3014 19.15 6.90326 18.9521 5.9612 18.6316C5.48754 18.4704 5.18096 18.2955 5.00759 18.1425C4.84883 18.0024 4.84976 17.9286 4.8499 17.9174L4.8499 17.9167ZM15.1518 17.901C15.152 17.901 15.1518 17.903 15.1505 17.9068C15.1509 17.9029 15.1516 17.901 15.1518 17.901ZM9.9999 14.15C8.41567 14.15 6.792 14.427 5.53154 14.9837C4.32125 15.5181 3.1499 16.4607 3.1499 17.9167C3.1499 18.5456 3.46745 19.0507 3.88284 19.4172C4.2876 19.7744 4.82476 20.0406 5.4136 20.241C6.59654 20.6435 8.1984 20.85 9.9999 20.85C11.5636 20.85 13.1553 20.6406 14.385 20.2455C14.9952 20.0494 15.5682 19.7913 16.0059 19.451C16.4403 19.1133 16.8499 18.6034 16.8499 17.9167C16.8499 17.2271 16.536 16.6389 16.1057 16.1778C15.6796 15.7213 15.108 15.3518 14.482 15.062C13.229 14.4819 11.6042 14.15 9.9999 14.15ZM16.1538 11.9185C16.1989 11.4512 16.6142 11.1089 17.0814 11.1539C18.2956 11.2709 19.4221 11.5865 20.2733 12.0788C21.0977 12.5555 21.8499 13.32 21.8499 14.3733C21.8499 14.9192 21.641 15.417 21.2348 15.8126C20.8518 16.1855 20.3291 16.4349 19.7317 16.6043C19.2801 16.7323 18.8102 16.47 18.6821 16.0183C18.5541 15.5667 18.8164 15.0968 19.2681 14.9687C19.7157 14.8418 19.9429 14.6978 20.0487 14.5947C20.1313 14.5143 20.1499 14.4536 20.1499 14.3733C20.1499 14.2166 20.0327 13.9034 19.4223 13.5504C18.8388 13.213 17.9652 12.947 16.9184 12.8461C16.4511 12.801 16.1088 12.3857 16.1538 11.9185ZM17.9999 3.14999C17.5305 3.14999 17.1499 3.53055 17.1499 3.99999C17.1499 4.46944 17.5305 4.84999 17.9999 4.84999C18.9112 4.84999 19.6499 5.58872 19.6499 6.49999C19.6499 7.41126 18.9112 8.14999 17.9999 8.14999C17.5305 8.14999 17.1499 8.53055 17.1499 8.99999C17.1499 9.46944 17.5305 9.84999 17.9999 9.84999C19.8501 9.84999 21.3499 8.35015 21.3499 6.49999C21.3499 4.64984 19.8501 3.14999 17.9999 3.14999Z" fill="#347AE2"/>
</svg>
